<svg xmlns="http://www.w3.org/2000/svg" viewBox="0 0 500 500" fill="none">
  <!-- Background circle -->
  <circle cx="250" cy="250" r="220" fill="rgba(22,163,74,0.06)" stroke="rgba(22,163,74,0.12)" stroke-width="1"/>
  <!-- Monitor -->
  <rect x="90" y="120" width="280" height="190" rx="12" fill="#1F2937"/>
  <rect x="100" y="130" width="260" height="165" rx="8" fill="#111827"/>
  <!-- Code lines -->
  <rect x="116" y="148" width="80" height="6" rx="3" fill="#16A34A" opacity="0.8"/>
  <rect x="116" y="162" width="120" height="6" rx="3" fill="rgba(255,255,255,0.2)"/>
  <rect x="116" y="176" width="100" height="6" rx="3" fill="#FFD54A" opacity="0.6"/>
  <rect x="116" y="190" width="140" height="6" rx="3" fill="rgba(255,255,255,0.15)"/>
  <rect x="116" y="204" width="90" height="6" rx="3" fill="#16A34A" opacity="0.5"/>
  <rect x="116" y="218" width="160" height="6" rx="3" fill="rgba(255,255,255,0.1)"/>
  <rect x="116" y="232" width="110" height="6" rx="3" fill="#FFD54A" opacity="0.4"/>
  <rect x="116" y="246" width="80" height="6" rx="3" fill="rgba(255,255,255,0.15)"/>
  <rect x="116" y="260" width="130" height="6" rx="3" fill="#16A34A" opacity="0.3"/>
  <!-- Stand -->
  <rect x="215" y="310" width="30" height="40" rx="4" fill="#374151"/>
  <rect x="185" y="348" width="90" height="10" rx="5" fill="#374151"/>
  <!-- Shield icon on screen -->
  <path d="M280 160 L310 170 L310 195 C310 210 295 218 280 222 C265 218 250 210 250 195 L250 170 Z" fill="rgba(22,163,74,0.15)" stroke="rgba(22,163,74,0.4)" stroke-width="1.5"/>
  <path d="M280 170 L302 178 L302 194 C302 205 292 212 280 216 C268 212 258 205 258 194 L258 178 Z" fill="rgba(22,163,74,0.2)"/>
  <path d="M270 193 L276 199 L290 185" stroke="#16A34A" stroke-width="2.5" stroke-linecap="round" stroke-linejoin="round"/>
  <!-- Floating elements -->
  <circle cx="80" cy="200" r="30" fill="rgba(255,213,74,0.08)" stroke="rgba(255,213,74,0.2)" stroke-width="1"/>
  <text x="80" y="207" text-anchor="middle" font-size="18" fill="#FFD54A" opacity="0.7">🔒</text>
  <circle cx="400" cy="160" r="25" fill="rgba(22,163,74,0.08)" stroke="rgba(22,163,74,0.25)" stroke-width="1"/>
  <text x="400" y="167" text-anchor="middle" font-size="16" fill="#16A34A" opacity="0.7">⚡</text>
  <circle cx="420" cy="320" r="20" fill="rgba(255,213,74,0.08)" stroke="rgba(255,213,74,0.2)" stroke-width="1"/>
  <text x="420" y="327" text-anchor="middle" font-size="14" fill="#FFD54A" opacity="0.7">🎯</text>
  <!-- Certificate -->
  <rect x="310" y="240" width="120" height="80" rx="8" fill="rgba(255,255,255,0.06)" stroke="rgba(255,255,255,0.12)" stroke-width="1"/>
  <rect x="320" y="252" width="50" height="4" rx="2" fill="rgba(255,213,74,0.5)"/>
  <rect x="320" y="262" width="80" height="3" rx="1.5" fill="rgba(255,255,255,0.2)"/>
  <rect x="320" y="270" width="60" height="3" rx="1.5" fill="rgba(255,255,255,0.15)"/>
  <circle cx="390" cy="286" r="12" fill="rgba(255,213,74,0.15)" stroke="rgba(255,213,74,0.4)" stroke-width="1"/>
  <path d="M384 286 L387 289 L396 281" stroke="#FFD54A" stroke-width="1.5" stroke-linecap="round" stroke-linejoin="round"/>
  <!-- Student silhouette -->
  <circle cx="250" cy="390" r="24" fill="rgba(255,255,255,0.06)"/>
  <circle cx="250" cy="380" r="12" fill="rgba(22,163,74,0.3)"/>
  <path d="M225 415 C225 400 235 393 250 393 C265 393 275 400 275 415" fill="rgba(22,163,74,0.2)" stroke="rgba(22,163,74,0.3)" stroke-width="1"/>
</svg>
